/* XPM */
static char *e767eb69c77b4c0bc6f58b5064ba18b5B3gm29zvQI4k03mG[] = {
/* columns rows colors chars-per-pixel */
"96 96 84 1 ",
"  c #145E53",
". c #11727A",
"X c #676342",
"o c #6C6847",
"O c #6B6748",
"+ c #6E6A49",
"@ c #716E4D",
"# c #74714E",
"$ c #726E51",
"% c #767252",
"& c #7A7655",
"* c #7D7A56",
"= c #7B7559",
"- c #7E7A59",
"; c #7F7B60",
": c #827D5C",
"> c #837D61",
", c #887F67",
"< c #887F68",
"1 c #84805E",
"2 c #868262",
"3 c #868264",
"4 c #868265",
"5 c #878365",
"6 c #898263",
"7 c #888463",
"8 c #888164",
"9 c #888464",
"0 c #898664",
"q c #8B8665",
"w c #8B8766",
"e c #8B8767",
"r c #8C8767",
"t c #868369",
"y c #868468",
"u c #888369",
"i c #898468",
"p c #8B8569",
"a c #8C8669",
"s c #88856C",
"d c #89866F",
"f c #8E896B",
"g c #88886C",
"h c #8D896D",
"j c #8C896F",
"k c #908B6D",
"l c #888671",
"z c #898673",
"x c #8A8673",
"c c #8C8970",
"v c #8D8A73",
"b c #8E8C70",
"n c #8C8C79",
"m c #938E73",
"M c #938F76",
"N c #918E7A",
"B c #949174",
"V c #939078",
"C c #94927B",
"Z c #95917C",
"A c #97947F",
"S c #99977C",
"D c #979879",
"F c #9A9A7D",
"G c #1C919A",
"H c #1AAAA7",
"J c #20C5B5",
"K c #2CE0D8",
"L c #4AEDD9",
"P c #979580",
"I c #949482",
"U c #999681",
"Y c #999781",
"T c #969882",
"R c #9A9986",
"E c #96978D",
"W c #99978C",
"Q c #96988C",
"! c #99998F",
"~ c #979790",
"^ c #989690",
"/ c #A1FBE8",
"( c #D5FFF6",
") c white",
/* pixels */
"%%=>8888889775571:1111299rrr7111::::****-:::::1:2779999272222::::::2222222:>>>>uVAAAAZg=====-::1",
"%%=>888888972557111111299rrr911:::2:****-:::::1:2779999272222::::::2222222::>>>uBZZAAZg=====*::1",
"%==:759999972227211111299rr99>1:::2:*****:::::::7999999272222::::::22222222::>>iMCZZZCd=****-:11",
"---:2222225222255522222:>:>>>::::::-*****-::::::5iiiiii999789iffvgg522222222:225fbbbbvy-:::::267",
"222:::111>>,5555iii999:%%%%%=-----:-*****------:5dxxdddi99iidZAPPPCi2222221212222222222111112rr9",
"2821::::::>,,<55iiiiii:@$$$$%---**-******------:yxxxxxdaiiiidURRRRPg2221121222211111:1>222226rfr",
"2222::::::>,,,55iiiiii>@$$$$%----*********----*:yxxxxxdaaiiidURRRRUg222112222221:111:::22222699a",
"2221::::::>,5555iiiaaa>$$$$$%-**-*********----*:yxxxxxdaaaaidURRRRPg222112222221::11::122222699f",
"2221::::::555555iiiiaa>@$$@@#***-*********----*:txxxxxdaaaiiiUUUURTg222112222221::::::1222227999",
"2221::>>2288888ii99999>@$$@@#**--**........................iiUPPPTAg222222222221:::::::2222229ff",
"2268998i99fkkkkf822222:=====*----::........................9iMMNNMMh996896:1211::::---::::::2fkk",
"558afahhffmmmmmm5::::::::::::::::::........................99ahhhhhai9rrr8::::::------------2kBB",
"588akkkmkkmBBBBm7::::::::::::::::::........................998uuuiiaiaaaa8:>>:::------*****->mmm",
"88uhkkkkkkmBBmmm2::::::::::::::::::........................99999iiaaaaaaa9>>>>::------*****->mmm",
"888akkkkkkmBBmmm2::::::::::::::::::........................999999iaaaahha8>>2:::-*----*****->mmm",
"588afffffkmmmmmk2::::::::::::......))))))))))))))))))((((((......9iaiiaaa8>>>>::--:------**-2kmm",
">>>2999889aiiiai211111:::::::......))))))))))))))))))((((((......68999rra9899952222221:::::::225",
"---:::::::1122222222221-----:......))))))))))))))))))((((((......:17977799r9999999r9996::::::=%=",
"***-::::::::::::2222221--*--:......))))))))))))))))))((((((......:177777779rriaar999996:1111:#@@",
"***-::::::::::::2222271***---......))))))))))))))))))((((((......:17777999rrrraai999996:1111:#@@",
"***-::::::::::::2222221**----......))))))))))))))))))((((((......:1777999rrrrraafr99996:1111:###",
"****::::::::::>:2222221......))))))LLLLLLLLLLLL//////((((((JJJJJJ      99rfaaaaafff9992::111:#@#",
"--*-::::::112>>:1211111......))))))LLLLLLLLLLLL//////((((((JJJJJJ      999raaa99999992222222:%#%",
"221:::::::29855211::::2......))))))LLLLLLLLLLLL//////((((((JJJJJJ      9982>2>>>------:9rrar6=%&",
"9991::::::9ri9991:::::2......))))))LLLLLLLLLLLL//////((((((JJJJJJ      9i5:>>>>-%####%:kkkkka=&=",
"9991::::::9aaaii::::::2......))))))LLLLLLLLLLLL//////((((((JJJJJJ      ii5:>>>>-%####%:kffkk9=&&",
"9991::::::9aaaa9::::::2......))))))LLLLLLLLLLLL//////((((((JJJJJJ      iu8>>>>>-%####%:kffff9=&&",
"9991::::::9aaaai>......))))))LLLLLL////////////((((((//////LLLLLLJJJJJJ      ::-%#####:fffff9==&",
"9991::::::99i99i5......))))))LLLLLL////////////((((((//////LLLLLLJJJJJJ      ::-%#####:ffff99=&&",
"::::111111:::::,v......))))))LLLLLL////////////((((((//////LLLLLLJJJJJJ      ---=&&&&&:222221&##",
"---:222221----->N......))))))LLLLLL////////////((((((//////LLLLLLJJJJJJ      ----*****:11111:%##",
"-*-:777771----->Z......))))))LLLLLL////////////((((((//////LLLLLLJJJJJJ      ----*****:11111:###",
"***:776671**--->P......))))))LLLLLL////////////((((((//////LLLLLLJJJJJJ      ----*****:11111:###",
"***1272271****->P......))))))LLLLLL))))))(((((())))))((((((LLLLLLLLLLLL      ----*****:11111:###",
"***1222272-***->P......))))))LLLLLL))))))(((((())))))((((((LLLLLLLLLLLL      ----*****:111:::###",
"&&*:222252-=***;n......))))))LLLLLL))))))(((((())))))((((((LLLLLLLLLLLL      --::::::::11111:===",
"@#%:555552======t......))))))LLLLLL))))))(((((())))))((((((LLLLLLLLLLLL      112888888621112>::-",
"+@%:55555>======:......))))))LLLLLL))))))(((((())))))((((((LLLLLLLLLLLL      2229raaa99222222>>>",
"+@%:55555>======:......))))))LLLLLL))))))(((((())))))((((((LLLLLLLLLLLL      12299aaa99222222>>>",
"+@%:55555>=......))))))LLLLLL))))))LLLLLLLLLLLL////////////HHHHHHJJJJJJHHHHHH      ii9922222>>>>",
"@@%-25555>=......))))))LLLLLL))))))LLLLLLLLLLLL////////////HHHHHHJJJJJJHHHHHH      iii522222>>>>",
"%%=:22222>-......))))))LLLLLL))))))LLLLLLLLLLLL////////////HHHHHHJJJJJJHHHHHH      uuii99iiiu,,>",
"---:::::>>5......))))))LLLLLL))))))LLLLLLLLLLLL////////////HHHHHHJJJJJJHHHHHH      uutdvvvnnvu88",
"::1::::::>i......))))))LLLLLL))))))LLLLLLLLLLLL////////////HHHHHHJJJJJJHHHHHH      55txNNNNNmhia",
":11:::::::9......))))))LLLLLL))))))LLLLLLLLLLLL////////////HHHHHHJJJJJJHHHHHH      55txNNNNNmdua",
"111:::::::9......))))))LLLLLL((((((LLLLLL//////////////////GGGGGGJJJJJJHHHHHH      55txNNNNNmdia",
"111:::::::9......))))))LLLLLL((((((LLLLLL//////////////////GGGGGGJJJJJJHHHHHH      55tvNNNNNmdia",
"111:::::::9......))))))LLLLLL((((((LLLLLL//////////////////GGGGGGJJJJJJHHHHHH      855dNNNNMvdii",
"1121:::::>a......))))))LLLLLL((((((LLLLLL//////////////////GGGGGGJJJJJJHHHHHH      555ivvvvfdu88",
"2225>>>>25a......))))))LLLLLL((((((LLLLLL//////////////////GGGGGGJJJJJJHHHHHH      >>>5555555225",
"2255,,,555h......))))))LLLLLL((((((LLLLLL//////////////////GGGGGGJJJJJJHHHHHH      >>>2222222222",
"2272>,,558h......))))))))))))JJJJJJ//////////////////LLLLLLGGGGGGHHHHHHHHHHHH      >>>2222522221",
"7772>,5558h......))))))))))))JJJJJJ//////////////////LLLLLLGGGGGGHHHHHHHHHHHH      >>>>222222211",
"777222555uh......))))))))))))JJJJJJ//////////////////LLLLLLGGGGGGHHHHHHHHHHHH      >>>>222222111",
":::22222>8h......))))))))))))JJJJJJ//////////////////LLLLLLGGGGGGHHHHHHHHHHHH      >>>>>>>>21222",
"&==:11:::>u......))))))))))))JJJJJJ//////////////////LLLLLLGGGGGGHHHHHHHHHHHH      555>:::::1999",
"%%%-:::::>8......))))))))))))JJJJJJ//////////////////LLLLLLGGGGGGHHHHHHHHHHHH      555>>::::1999",
"#%&-:::::>8......((((((LLLLLLLLLLLLHHHHHHHHHHHHHHHHHHHHHHHHJJJJJJJJJJJJGGGGGG      555>:::::2ff9",
"##%-:::::>8......((((((LLLLLLLLLLLLHHHHHHHHHHHHHHHHHHHHHHHHJJJJJJJJJJJJGGGGGG      555>:::::29f9",
"%%%-:::::28......((((((LLLLLLLLLLLLHHHHHHHHHHHHHHHHHHHHHHHHJJJJJJJJJJJJGGGGGG      555>:::::2fff",
"%%%-:::::>8......((((((LLLLLLLLLLLLHHHHHHHHHHHHHHHHHHHHHHHHJJJJJJJJJJJJGGGGGG      ttt>:::::29ff",
"---:2>::::=......((((((LLLLLLLLLLLLHHHHHHHHHHHHHHHHHHHHHHHHJJJJJJJJJJJJGGGGGG      nnnd::::::979",
"22222>>>2:+......((((((LLLLLLLLLLLLHHHHHHHHHHHHHHHHHHHHHHHHJJJJJJJJJJJJGGGGGG      QQPv::::::122",
"222555225:OXXXX+:      LLLLLLHHHHHHJJJJJJJJJJJJJJJJJJJJJJJJHHHHHHJJJJJJ      11dP!QQEQn:::::::::",
"222588888:OXXXX+:      LLLLLLHHHHHHJJJJJJJJJJJJJJJJJJJJJJJJHHHHHHJJJJJJ      11yPQQE~En-:::::::1",
"722888888:OXXXX+:      LLLLLLHHHHHHJJJJJJJJJJJJJJJJJJJJJJJJHHHHHHJJJJJJ      :1yPQE^^!n-::::::11",
"222288888:OXXXX+:      LLLLLLHHHHHHJJJJJJJJJJJJJJJJJJJJJJJJHHHHHHJJJJJJ      :1yPQ!!!Wn-::::::11",
":::2888882-====-:      LLLLLLHHHHHHJJJJJJJJJJJJJJJJJJJJJJJJHHHHHHJJJJJJ      ::2xnnnnnt-----*&&=",
"--:2888889827772:      LLLLLLHHHHHHJJJJJJJJJJJJJJJJJJJJJJJJHHHHHHJJJJJJ      --->>>>>>--*****@@@",
"**-2998899997997-      KKKKKKHHHHHHJJJJJJJJJJJJJJJJJJJJJJJJHHHHHH//////      ----------*****&@++",
"**-5iiiu9rr97777-      KKKKKKHHHHHHJJJJJJJJJJJJJJJJJJJJJJJJHHHHHH//////      ----------*****=++@",
"**-5iiii8rr97776-      KKKKKKHHHHHHJJJJJJJJJJJJJJJJJJJJJJJJHHHHHH//////      ----------*****=@+@",
"**-299iii9997997-      KKKKKKHHHHHHJJJJJJJJJJJJJJJJJJJJJJJJHHHHHH//////      ------*********=@@@",
"-::2989989777777:      KKKKKKHHHHHHJJJJJJJJJJJJJJJJJJJJJJJJHHHHHH//////      ::::::::::-****=###",
"99876665861111112      KKKKKKHHHHHHJJJJJJJJJJJJJJJJJJJJJJJJHHHHHH//////      >>>225222:---***===",
"fkf9222222::---:9kkkkkf      GGGGGGLLLLLLLLLLLL////////////JJJJJJ      *-:22>,,88uuiai>----**:::",
"kka9222222:----:fkkkfkf      GGGGGGLLLLLLLLLLLL////////////JJJJJJ      *-:5555,uuuuu8i>*--***:::",
"kfa9222222:----:fkkkfkf      GGGGGGLLLLLLLLLLLL////////////JJJJJJ      --:2555,uuuuuui>******:::",
"kfa9222222:----:9kkkkkf      GGGGGGLLLLLLLLLLLL////////////JJJJJJ      --:25555uuuuuui>*****-:::",
"ffa9222222-----:9fffff9      GGGGGGLLLLLLLLLLLL////////////JJJJJJ      --:225,58uuu8892-----::::",
"i9r9559892--***--------      GGGGGGLLLLLLLLLLLL////////////JJJJJJ      ::16688888>>2222222222::-",
"2669999ii5--***=@+++@+%--**-*                                    9982222277777961:::::29iiiit>>>",
"2229iiaai5-----=@++++o@--****                                    ra8227777777776::::::2iaaiit>>>",
"2229iaaai2-*---=@++++o@--****                                    ai8522777777777::::::2aaaaiu>>>",
"6259raaai2-*---=@o+++o@------                                    ai8522277777777::::::2iaaaiu>-;",
"65589aai92-*---=@ooooo@------                                    9i9522227777772::::::2iiuii8>--",
"5558888892----**#@@@@+%::::::                                    222222222779996::---->555555>>>",
"5555>>>>>::---:-=&&&&%*22:>>>------::::::2raa999:**---:999999======::::::2998998---===-::::::>>>",
"555>>>>>>:::::::-*==*=:22>,,>-;;;--:211111777772-&&===:722272@@@@@@-:::::29iiui8-======------55,",
"585>>>>>>:::::::------:>5>55>;;;---:221111777772*&&=&=-722222@@@@@@*:::::29aiua8=======*-----55<",
"888>>>>>>:::::::------:>,555>-;----:222211777772*&==&&-722222#@@@@@*:::::>9aiui5=======*-----55,",
"888>>>>>>:::::::-----*:2,5552------:222212777772-===&&:777222#@@@@@*:::::29aiui8-======**----55,",
"552>>>>>::::::::---*-=:8t55y5;:::::::::::1277772-=====:775552$@@@@#-:::::2999998-======**----52>",
"::>2888822:::::-=%%%%%>MBBBBh222211-*****:9faaa91:::::2ffffff==&&==:2111::222222:::::::::::::---",
":::2999997:::::-=%%%##5SSFDDB552222-&&&&=:affaff2::::19kkkkkf--***-12111112222222>>>::::::::-===",
":::2999997:::::-=%%###5FFFFFB577222*%#%&&:afhfff2111:19kkkkkk--***-12222222222221:1111::::::-==="
};
