/* XPM */
static char *b236f96606e24c0c92ad0fae9ff66d9fD8MLdMYWjufQiYng[] = {
/* columns rows colors chars-per-pixel */
"96 96 66 1 ",
"  c #1F0061",
". c #220065",
"X c #25006C",
"o c #270072",
"O c #290075",
"+ c #2C007A",
"@ c #30007E",
"# c #330083",
"$ c #370089",
"% c #3B018D",
"& c #3F0290",
"* c #430394",
"= c #470699",
"- c #4B069B",
"; c #4D099F",
": c #4E099F",
"> c #51089E",
", c #4F09A0",
"< c #4F0BA0",
"1 c #5009A0",
"2 c #540BA3",
"3 c #530CA3",
"4 c #550CA3",
"5 c #570BA6",
"6 c #560CA4",
"7 c #580CA7",
"8 c #580EA7",
"9 c #5A0FA7",
"0 c #5A0FA9",
"q c #5A10A8",
"w c #5B11A9",
"e c #5C11A8",
"r c #5C11AA",
"t c #5C12AA",
"y c #5F13AD",
"u c #6013AC",
"i c #6316AF",
"p c #6317AF",
"a c #6417AF",
"s c #6518AE",
"d c #6417B0",
"f c #6517B1",
"g c #6519B1",
"h c #6B1BB3",
"j c #6A1CB2",
"k c #6B1CB3",
"l c #6C1DB4",
"z c #6D1DB5",
"x c #701FB6",
"c c #6F20B7",
"v c #6F21B8",
"b c #7021B7",
"n c #7323B9",
"m c #7323BB",
"M c #7423BA",
"N c #7C2CBF",
"B c #7D2BC0",
"V c #7F30C2",
"C c #802FC1",
"Z c #8232C1",
"A c #8737C4",
"S c #8636C5",
"D c #8638C4",
"F c #8839C5",
"G c #8B3BC7",
"H c #9143CC",
/* pixels */
"$$$$$$266666tttttt,::::::::::=############::::::%%%%%$oooooo=-----zzzzzk%%%%%$......XXXXXo%%&%&&",
"$$$$$$266666tttttt,::::::::::=############::::::%%%%%$oooooo=-----zzzzzk%%%%%$......XXoXXo%%%%&&",
"$$$$$$266666tttttt,:::::::::::############::::::%%%%%$oooooo------kzzzzk%%%%%$......XoooXo%%%%%%",
"$$$$$$466666tttttt,:::::::::::############::::::%%%%%$oooooo------kzzzzz%%%%%$......XoooXo%%&%&&",
"$$$$$$466666wttttw,:::::::::::############::::::%%%%%$oooooo------kzzzzk%%%%%$......XXXXXo%&&&&%",
"$$$$$$466666wwwwww,:::::::==::############::::::%%%%%$oooooo==--=-kkkkkk%$$$$$......ooXXXo%%&&&%",
"DDDDDDbccccc>:,,,1nnnnnnttttttXXXXXXXXXXXX%%%%%%++++++......$%%%%$$$$$$$++++++######$$$$$$&%&&%%",
"FFFFFDbbbbbc>:,,,1nMMMMnttttutXXXXXXXXXXXX%%%%%%++++++......$%%%%$$$$$$#++++++######$$$$$$%%%&%%",
"FFFFFDbbbbbc>,,,,1nMMMMnuuttttXXXXXXXXXXXo%%%%%%++++++......$%%%%$$$$$$#++++++######$$$$$$%%%%%%",
"FFFFFDbbbbbc>,,,,1nMMMMnuuutttXXXXXXXXXXXo%%%%%%++++++......$%%%%$$$$$$#++++++######$$$$$$%%%%%%",
"FFFFFDbbbbbc>,,,,1nMMMMnutttttXXXXXXXXXXXo%%%%%%++++++......$%%%%$$$$$$#++++++######$$$$$$%%%%%%",
"FDDFFDbbbbbc>11111nnnnnnttttttXXXXXXXXXXXo%%%%%%++++++......$%%%%%$$$$$$++++++######$$$$$$%&****",
"aaaaai466664DDDDDD311111++++OO.XXXXX%%%%%&yytttyuuuuuu*%%%%%::::--566666++++++......$%%%%%888888",
"dddddi666662DFFFFD311111OOOOOOXXXXXX%%%%%&tuuuuuduuuuu*&&&&&::::::588885++++++......$$%%%%888888",
"dddddi666664DFFFFD331111OOOOOOXXXXXX%%%%%&tuuuuudduduu*&&&&&:::::-688885++++++......$%%%%%888888",
"dddddi666664DFFFFD331111OOOOOOXXXXXX%%%%%&tuuuuudddduu*&&&&&::::::688886++++++......$%%%%%888888",
"dddddi666664DFFFFD311111OOOOOOXXXXXX%%%%%&tuyyyydddduu*&&&&&::::::888885++++++......$%%%%%880008",
"iiiiii342224AAAAAA1,,,::OOOOOoXXXXXX%&&&&*ttttttuuuuuu&%%%%&::::::888888++++++......$$$$$%888888",
"$$$$$$,::::,666664OOOOOOXXXXXX&&&&&*nnnnnn13,3,30wwwww######******FFFFFF::::::OoooOo......**==**",
"$$$$$$::::::444444OoooooXXXXXX&*****nMMMMn1333,,wwwwww######******FFFFFF,:::::Oooooo......**==**",
"$$$$$$::::::444444OoooooXXXXXX&*****nMMMMn133333wwwwww######******FFFFFF::::::Oooooo......******",
"$$$$$$::::::444444OoooooXXXXXX&*****nMMMMn133333wwwwww######******FFFFFF::::::Oooooo......******",
"$$$$$$::::::444444Oooooo.....X&*&&**nMMMMn133333wwwwww######******FFFFFF::::::Oooooo......******",
"$$$$$$::::::444444oooooo......&*&&&*nMMMMn1,::::800000######******FFFFFF::::::OOOOOo.....X******",
"XXXXXo$$$$$$X...........::::::zzzzzz::::::XXXXXX+++++++OOO+OXXXXXX&&**&*gggggg::::::OoooooXXXXXX",
"XXXXXX$$$$$$............:::::,zcccbc::::::XXXXXX+++++++OOO+OXXXXXX&***&&gggggg,,,,,:OoooooXXXXXX",
"XXXXXX$$$$$$............::::::cbcbbc::::::XXXXXX++++++++O++OXXXXXX&*****gggggg,,,,,:OoooooXXXXXX",
"XXXXXX$$$$$$............:::::,zbccbc::::::XXXXXX++++++++OO+OXXXXXX&*****gggggg,,,,,:OoooooXXXXXX",
"XXXXXX$$$$$$............:::::,zbbbbc::::::XXXXXX+++++++++++OXXXXXX&*****gggggg,,,,,:OoooooXXXXXX",
"XXXXXo$$$$$$...........X:::::1zzzzzz:::::-XXXXXX++++++++++++XXXXXX&&&&&&gggggg11111:OOOOOOXXXXXX",
"OOOOOO+@@@@+oooooo==-==-ZVVVVB-----:XXXXXX......XXXXXX######XXXXXX .....%%%%%%cvvvvvwwwwwwXXXXXX",
"OOOOOO@@@@@+oooooo=-----ZZZZZZ-:::::XXXXXX......XXXXXX######XXXXXX      $%%%%%bbbbbbtttttwXXXXXX",
"OOOOOO@@@@@+Oooooo=-----ZZZZZZ-:::::XXXXXX......XXXXXX######XXXXXX      $%%%%%bbbbbctttttwXXXXXX",
"OOOOOO+@@@@+oooooO=-----ZZZZZZ-:::::XXXXXX......XXXXXX######XXXXXX      $%%%%%cbbbbbtttttwXXXXXX",
"OOOOOO+@@@@+OooooO------ZZZZZZ-:::::XXXXXX......XXXXXX######XXXXXX..    $%%%%%cbbbbbtttttwXXXXXX",
"O+OOOO+@@@@@OOOOOO=--==-BZZZZB::::::XXXXXX......XXXXXX######XXXXXX.. .. $$$$$$ccccccttttttoXXXXX",
"dddddd::::::%$$$$%nMnnnnttttttoXooooXXXXXX#######$####%%%%%%******+OOOOOXXXXXX%%****bnnnnb******",
"dddddd::::::%%%%%%nMMMMntttttwoXXXXXXXXXXX######$$$$$$%%%%%%******+OOOOOXXXXXX%%%%%%bbbbbb**==**",
"dddddd::::::%%%%%%nMMMMMtttttwoXXXXXXXXXXX######$$$$$$%%%%%%******OOOOOOXXXXXX%%%%%&bbbbbb**==**",
"dddddd::::::%%%%%%nMMMMMtttttwXXXXXXXXXXXX######$$$$$$%%%%%%******OOOOOOXXXXXX%%%%%&bbbbbb*===**",
"dddddd::::::%%%%%%nMMMMMtttttwXXXXXXXXXXXX######$$$$$$%%%%%%******OOOOOOXXXXXX%&%%%&bbbbbb******",
"dddddd::::::$$$$$%cnnnnntwwwwwoXXXXXXXXXXX######$$$$$$%%%%%%******OOOOOOXXXXXX%%%%%%bbbbbc******",
"======#@@@@@++++++*=====$$$$$$OOOOOO######++++++555555:=====088866222221XXXXXXXXXXXo$$$$$$******",
"======@@@@@#++++++*=====$$$$$$OOOOOO######++OOO+588885--:::=000088666664XXXXXXXXXXXX$$$$$$******",
"======@@@@@@+O++++======$$$$$$OOOOOO######+OOOO+586688------808888666665XXXXXXXXXXXo$$$$$$******",
"======@@@@@@+OO+++======$$$$$$OOOOOO######OOOOO+586688------808888666665XXXXXXXXXXXo$$$$$$******",
"======@@@@@@+O++++======$$$$$$OOOOOO######OOOOO+588888==-=--888888666665XXXXXXXXXXXo$$$$$$******",
"======#+@@@++O++++======$$$$$$OOOOOO######OOOO+O688886:===--888888333334ooXXXXXXXXXo$$$$$$******",
"ttttt0%$$$$$@+++@@*=****$$$$$$######@@@@@+......wwwwwtnnnnnnAAAAAA*&%%**ooooooXXXXXo333311------",
"yyyyyw%%%%%$@+@@@@*=**=*$$$$$$######@@@@@+......wyyyyynMnnMMAAAAAA*%%%%%ooooooXXXXXo333111------",
"yyyyyw%%%%%$@@@@@+******$$$$$$######@@@@@+......wyyyyynMnMMMAAAAAA*%%%%%ooooooXXXXXo331111------",
"yyyyy0%%%%%$@@@@@@******$$$$$$######@@@@@+......wyyyyynMnnMMAAAAAA&%%%%%ooooooXXXXXo331111------",
"ttyyy0%%%%%$@@@@@@******$$$$$$######@@@@@+......wyyyyynMMMMMAAAAAA*%%%%%ooooooXXXXXo111111--===-",
"ttttyw$$$$$$@@@@@@******$$$$$$######++++++......00wwwtnnnnnMAAAAAA*%%%%%oOOOOoXXXXXo111111-=====",
"******@@@@@@$$$$%$kkkkzzgggggi+OOOOOoXXXXo$$$$$$%%%%%&tttttt868888wtwww8=*=**=######&&&&&&%%%%%%",
"******@@@@@+$%%%%%kzzzzzgggggg+OOOOOXXXXXo$$$$$$%%%%%%tttttt588888ttttt0======######%&&&&&%%%%%%",
"******@@@@@@$%%%%%kzzzzzgggggg+OOOOOXXXXXo$$$$$$%%%%%%ttttut888888wtttt0======######%%%%&&%%%%%%",
"******@@@@@@$%%%%$kzzzzzgggggg+OOOOOXXXXXo$$$$$$%%%%%%ttttut888888wtttt0======######%%&%&&%%%%%%",
"******@@@@@@$%%%$$kzzzzzgggggg+OOOOOooXXXo$$$$$$%%%%%%ttttut888888wtttt0======######%&&&&&%%%%%%",
"******@++++@$$$$$$kkkkkkgggggg+OOO++oooooo$$$$$$%&%%%%tttttt888888wwtttt======######%%%%%%%%%%%%",
"######OOOOOO......$$$$$$zczzzbnnnnnb$$$$$$$$$$$$666666-====-CCCCCBvvvvvc++++++XXXXXX######++++++",
"######OOOOOO.    .$$$$$$zbbbxxbbbbbb$$$$$$$$$$$$888888------CZZZZCcvnnnb++++++XXXXXX######++++++",
"######OOOOOO.    .$$$$$$zbbbxbbbbbbb$$$$$$$$$$$$688888------ZZZZZCnvnnnb++++++XXXXXX######++++++",
"######OOOOOO.    .$$$$$$xbbbbbbbbbbb$$$$$$$$$$$$688888------ZZZZZZnnnnnb++++++XXXXXX######++++++",
"######OOOOOO.    .$$$$$$zbbbbbbbbbbb$$$$$$$$$$$$808886------ZZZZZCnnnnnx++++++XXXXXX######++++++",
"######+++++O......$$$$$$zcccccbbnnnb$$$$$$$$$$$$655555------ZZZZCCcccccc++++++XXXXXX######++++++",
"******6wwwww+++++Ooooooo******CZZZZZNNNNNN%%%%%%::::::NNNNNNkkkkkk######......$$$$$$bxxxxc&%%%%%",
"******wwtttw++++++oooooo******ZZZZZZNNNNNN*%%%%%::::::NNNNNNhkkkkk#@++@@......$$$$$$bbbbbb*%&&**",
"******wttttw++++++oooooo******ZZZZZZNNNNNN*%%%%&::::::NNNNNNkkkkhk##@@@@......$$$$$$bbbbbb*&&&&&",
"******wttttw++++++oooooo******ZZZZZZNNNNNN*%%%%%::::::NNNNNNkkkkkk##@@@@......$$$$$$bbbbbb*&&&&&",
"******wttttw++++++oooooo******ZZZZZZNNNNNN*%%%%%::::::NNNNNNkkkkkk#@@@@@......$$$$$$bbbbbb*&&*&&",
"******wttttw++++++oooooo******BZZZZZNNNNNN*&&&&&::::::NNNNNNkkkkkg#+++++......$$$$$$bbbbbb*%%%%%",
"&&&&&*nnnMnnzzzzzk#@++++OOOOOO$$$$$$MMMMMMwwwwww888888zbbbbb$$$$$$......$$$$$%zcccccBBBBNN*%%%%%",
"%%%%%&nMMMMMzzzzzz@@@@@+oooooo$$$$$$MMMMMMwwwwww888888zbbbbx$$$$$$......$$%%$%zbbbbbBBBBBN*%%%%%",
"%%%%%&nMMMMMzzzzzz@@@@@+oooooo$$$$$$MMMMMMwwwwww888888zbbbbx$$$$$#......%%%%$%zbbbbbBBBBBN*%%%%%",
"%%%%%&nMMMMMzzzzzz@@@@@+oooooo$$$$$$MMMMMMwwwwww888888zbbbbz$$$$$$......%%%%%%zbbbbbBBBBNN*%%%%%",
"%&&&&&nMMMMMzzzzzz@@@@@+oooooo#$$$$$MMMMMMwwwwww888888zbbbbz$$$$$#......%%%%%%zbbbbbBNNBBN&%%%%%",
"%%&&%&nnnnnnzzzzzz#@@@@@Oooooo######nMMMMMwwwwww888888zzzzzz$$$$$#......%%%%%%zbbbbbNNNNBN&%%%%%",
"######$$$$$$nnnnnnkkkkkk++++++......$$$$$$%%%%%%******@@@@@+......$$$$$$iiiiiinMMMMn$###$#OOOOOO",
"######$$$$$$nMMMMnzzzzkk++++++.    .$$$$$$%%%%%%*****&++++++......$$$$$$idddddnnnnnn######OOOOOO",
"######$$$$$$nMMMMnzzzzkk++++++.    .$$$$$$%%%%%%&&***&++++++......$$$$$$idddddnnnnnn######OOOOOO",
"######$$$$$$nMMMMnzzzzkk++++++.    .$$$$$$%%%%%%&&****++++++......$$$$$$idddddnnnnnn######OOOOOO",
"######$$$$$$nMMMMnzzzzkk++++++.     $$$$$$%%%%%%&&****++++++......$$$$$$idddddnnmnnn######OOOOOO",
"######$$$$$$nnnnnnzzzzzk++++++..    $$$$$$%%%%%$&&**&&++++++......$$$$$$idddddnnnnnn######OOOOOO",
"######@@@@@@======HHHHHHsiiisiOO++++OooooO$%%%%%$$$$$$XXXXXX+++++@zzzzzzw88888++++++.....X++++++",
"######@@@@@@======HHHHHHsssssa+O++OOoooooo$%%%%%$$$$$$XXXXXX+@##@#zbbbbc888888++++++......++++++",
"######@@@@@@======HHHHHHssssss+++++OoooooO$%%%%%$$$$$$XXXXXX+@@@@@zbbbbb888888++++++......++++++",
"######@@@@@@======HHHHHHssssss+++++OoooooO$%%%%%$$$$$$XXXXXX+@@@@@zbbbbb888888++++++......++++++",
"######@@@@@@======HHHHHHssssss++++++oooooO$%%%%%$$$$$$XXXXXX+@@@@#zbbbbc000888++++++......++++++",
"##@@@@@@@@@#======HHHHHHsssssa+O+++OOOOOOO$%%%%%$$$$$$XXXXXX@@@@@#zzzzzz866686++++++......++++++",
"......%%%%%%====::111133666666%%%%%%%%$%%%iggggd11111,$$$$$$wwwwwwtttttw++++++XXXXXX++++++++++++",
"     .%%%%%*=-====111133666666&%&&&&%%%%%%gggggg111111$$$$$$wtttttyyyyy0OOOO+OXXXXXX++++++O+++++",
"  .. .%%%%%*==--==111113668866%%%%%%%%%%%%dggggg111111$$$$$$wtttttyyyyywOOOO+OXXXXXX++++++OO++++",
"  .. .%%%&%*===:==111133688866%%%%%%%%%%%%gggggg311111$$$$$$wttttttyyyyw+OOO+OXXXXXX++++++OO++OO",
"   . .%%&&%%==:::-111111668866%%%%%%%%%%%%dggggg331131$$$$$$wttwtwtttyy0OO+++OXXXXXX++++++OOOOOO",
"     .%%%%%%==:::-111111668886*%%%%%%%%%%%dggggg311131$$$$$$wttttttttttw+++++OXXXXXX++++++OOOOOO"
};
