/* XPM */
static char *_92c6ef784bb4c8aae3772bdf39d4c5bfhvgV5K624zyNcTC[] = {
/* columns rows colors chars-per-pixel */
"96 96 81 1 ",
"  c #676342",
". c #696544",
"X c #6C6847",
"o c #6B6748",
"O c #6E6A49",
"+ c #726E4D",
"@ c #74714E",
"# c #726E51",
"$ c #767351",
"% c #797554",
"& c #7D7A56",
"* c #7B755A",
"= c #7E7A59",
"- c #7F7B60",
"; c #827E5C",
": c #847E62",
"> c #887F67",
", c #877F69",
"< c #887F68",
"1 c #84805E",
"2 c #868262",
"3 c #868264",
"4 c #868265",
"5 c #888463",
"6 c #888164",
"7 c #888464",
"8 c #898664",
"9 c #8B8665",
"0 c #8B8766",
"q c #8C8767",
"w c #878368",
"e c #868468",
"r c #888369",
"t c #898469",
"y c #8B8569",
"u c #888768",
"i c #8C8669",
"p c #88856C",
"a c #8A876C",
"s c #87886C",
"d c #8E896B",
"f c #8A886C",
"g c #8C886D",
"h c #8D896D",
"j c #918C6D",
"k c #94916E",
"l c #888671",
"z c #8A8672",
"x c #8A8673",
"c c #8D8A73",
"v c #8E8C70",
"b c #8D8C7A",
"n c #948E72",
"m c #918E7A",
"M c #959273",
"N c #939077",
"B c #999573",
"V c #9B9876",
"C c #94927B",
"Z c #94937B",
"A c #96937B",
"S c #95917C",
"D c #97947F",
"F c #999679",
"G c #979879",
"H c #9A9A7D",
"J c #949382",
"K c #969580",
"L c #979580",
"P c #999681",
"I c #999781",
"U c #969882",
"Y c #9A9984",
"T c #9A9986",
"R c #96978C",
"E c #99978C",
"W c #96988C",
"Q c #9A998D",
"! c #979790",
"~ c #989690",
"^ c #9B9991",
/* pixels */
"$$*:6666667223321;1111277qqq5111;;;;&&&&=;;;;;;;2557777252222;;;;;;2222222;::::rCDDDDSf%%%%%=;;1",
"$$%:666666722335111111277qqq711;;;2;&&&&=;;;;;;;2557777222222;;;;;;2222222;;:::rMSSDDSf%%%%%=;;1",
"$%%;236777752225211111277q777:1;;;2;&&&&&;;;;;;;2777777222222;;;;;;22222222;;::tnCSSSCa%&&&&=;11",
"===;2222223222233322222;:;:::;;;;;;=&&&&&=;;;;;;3tttttt777567tddcff322222222;223dvvvvce=;;;;;262",
"222;;;112:233333tt7777;$$$$$%=====;=&&&&&======;3axxaaat77ttaSDLLLCt2222221212222222222211112q77",
"2621;;;;;::3><33tttttt;+####$===&&=&&&&&&======;exxxxxaittttaPTTTTLf2221121222211111;;:2222260dq",
"2332;;;;;;:>>>33tttttt:+####$====&&&&&&&&&====&;exxxxxaiitttaPTTTTPf222112222221;111;;;22266677i",
"2221;;;;;;333333tttiii:#####$=&==&&&&&&&&&====&;exxxxxaiiiitaPTTTTLf222112222221;;11;;122222677d",
"2221;;;;;;333333ttttii:+##++@&&&=&&&&&&&&&====&;wxxxxxaiiitttPTPPTLf222112222221;;;;;;1222222777",
"2221;;::226666rtt77777:+##++@&&&=&&&&&&&&&=;;==;wxxxxaagt77ttPPPLUDf222222222221;;;;;;;2222227dd",
"2266666677djjjjd622222;*%%%%&=&==;;;;;;;;;;;;;;;3ww3337t7777tnnmmnng776676;1211;;;;===;;;;;;2djj",
"336idiggddnnnnnn3;;;;;;;;;;;;;;;;;;;1111;;1111111222222755777igggggit7qqq6;;;;;;============2jMM",
"366ijjjnjjnNNNMn7;;;;;;;;;;;;;;;;;;;11111111111111111127777776rrrtiitiiii6;::;;;======&&&&&=:nnn",
"66rgjjjjjjnNNnnn2;;;;;;;;;;;;;;;;;;;1111111111111111112777777777ttiiiiiii7::::;;======&&&&&=:nnn",
"666innjjjjnMMnnn2;;;;;;;;;;;;;;;;;;;11111111111111111167777777777tiiiiggi6::2;;;=&====&&&&&=:nnn",
"366idddddjnnnnnj2;;;;;;;;;;;;;;;;;;;111111111111;;;1;1255577777777tittiii6::::;;==;======&&=2jnn",
":::2777667itttit211111;;;;;;;;11111;;;;;;;11111;&$$$$%=111112222666777qqi7677732222221;;;;;;;223",
"===;;;;;;;112222222222;=====;111112;=====;12111;$XXXXX%;;;;;;;;;;;1575557qq777777777776;;;;;;%%%",
"&&&=;;;;;;;;;;;;2222221==&==;222222;&&&&=;22212;+....X$;;;;;;;;;;;155555557qqtiiq777776;1111;@++",
"&&&=;;;;;;;;;;;;2222221&&&===555112;=&&&=;22212;+....X$;;;;;;;;;;;15555777qqqqiit777776;1111;@++",
"&&&=;;;;;;;;;;;;2222221&&====555112;&&&&=;22222;@....X$;;;;;;;;;;;155577777777iiiqq7776;1111;@@@",
"&&&&;;;;;;;;;;;;2222221&=====225112;&&&&=;222221@....X$;;;;;;;;1;;15777777ddidiiddd7772;;111;$+@",
"==&=;;;;;;112::;1211111;;;;;;5555551;;===:233332$XXXX+%;;;;;;;;;;;17777777qiii77777772222222;$@$",
"221;;;;;;;27633211;;;;2333336777qqq622222666rtt3=$$$$$&=======;;;;;7t777762:2:::======;7qqiq6%$%",
"7771;;;;;;7qtt771;;;;;2tttggaiggggiti7777tiiiiit;=======&&=&&&&&&&=3t777t3;::::=$@@@@$;jjjjji*%%",
"7771;;;;;;7iiitt;;;;;;2tiiiigiiiiiitrrrrriiiiigi;============&&&&==3ttrtt3;::::=$@@@@$;jddjj7*%%",
"7771;;;;;;7iiii7;;;;;;2iiiiiiiiiiiit77rrriiiiiii;&==========&&&&&==3ttttr3:::::=$@@@@$;jdddd7%%%",
"7771;;;;;;7iiiit:;;;;;2iiiiiiiiiiii77776riiiiiii;&==========&&&&&&;3ttttr3;::;;=$@@@@@;ddddd7%%%",
"7771;;;;;;77t7773:::::37itttiiiiiii767777rtiiii7;=&============&&=;266666:;;;;;=$@@@@@;dddd77%%%",
";;;;111111;;;;;>cCSSSCc::;;;2ddddid766663336663:;=;===27777771;111;====&&&======%%%%%%;222221%$@",
"===;222221=====:mEEEEEb=;=;;;dddddd76622222>>>>:;;;;;;5jjjjjj1;;111&$$$$$%=======&&&&&;11111;$@@",
"=&=;225551=====:SQ^^^^b=;==;;dddjdd7222222::>>::;;;;;;7kkjjjj1;1111%$$$$$%=======&&&&&;11111;@@@",
"&&=;255551&&===:J^^^^^b=;===;ddjjdj7222222::>>::==;;;;7kkjjjj211111%$$$@@%&======&&&&&;11111;@@@",
"&&&1222221&&&&=:J^^^^^m=;===1dddddd7222222::>>>:;==;;;7kjjjjj111111%@@$@@%&======&&&&&;11111;@@@",
"&&&1222222=&&&=:JQ^^^Qm=;;;;1dddddd5222222::>>>::;;;;;7jjjjjj222222%$$$$$%&======&&&&&;111;;;@@@",
"%%&;223232=*&&&-bJJJLLx*&&&&;777ddd222111;;::::;;;;;;;17dd77d222223:;;;;1;=====;;;;;;;;11111;%%%",
"+@$;333332******waasat2$$$$$&7777772;;;;;;;;;;;=;;;;;;;11111177777tdjjjjkd1;;112666666621112:;;=",
"X+$;33333:******;21111=@@@@@%5515551;;;;;;===&&==;;;;;;;;;;;;7777tdNVVVVVM2;12227qiii77222222:::",
"X+$;33333:*****&;;1111=+@+@@%5555551;;;;;;===&&&=;;;;;;;;;;;;77tiidNFFFFFn2;;1227qiii77222222:::",
"O+$;33333:*****&;;;111=+++@@%5555551;;;;;;===&&=;;;;;;;;;;;;;tiiiidNFFFFFn2;11227trtt7722222::::",
"++$=23333:*****&;11111=+++@@%5555551;;;;;;===&&=;;;;;;;;;;;;;tiiiiiMFFFFFn2;11127trttt322222::::",
"$$%;22222:======;11111;$%$%%&2111122122111222211;;;;;;;;;;;;;6rr667jMMMMMd2222227rrrrtt77tttr>>:",
"===;;;;;::33>>>3111111;=====;;;;;;;2577557jjjjjd212221;======:::;;122233222222126rrrrwacccbbcr66",
";;1;;;;;;:trrrr61;;;;;;;;;;;;=&&&&&277777dMBMkkk722222;&&&&&&;;;;;;===;;;;22221223w33wxmmmmmngti",
";11;;;;;;;7trrr71;11;;;;;111;&&&&&&277777jBBBBBk722222;*****&;;;;;=======;12221223333wxmmmmmnari",
"111;;;;;;;7trrr71;11;;;;;111;&&&&&&277777dMBBBBk722222;&*****;;;;;=;=&===;12221223333wxmmmmmnari",
"111;;;;;;;7trrr71;11;;;;;111;&&&&&&277777dMBBBBk721222;******;;;;;;=====&;2222222>>33wxmmmmmnati",
"111;;;;;;;7itrr72;;11;:;;122;=&&&&&277777dMMBBBk022222:---==:;;;;;;======;22222223663wxmmmmncatt",
"1121;;;;;:iiiiii6222222:2222;=&&&&&277777djjjjjd3111223tttttt=&&&&&=;;;;;;111111233333tccccdar66",
"2223:::223iddgdgir7777623333:====;;2ttttt7777773;;;;;:fCCCCCN%@@@@$;11112:;;;;;;;>>:::3333333223",
"2233>>>333gddddggiiiiit3>333:======5tddii633333:;=;;;:dHHHHHF$@@@@@;11222:;;;;;;;:::::2222222222",
"2252:>>336gjdddjiiiiiit3>333:======2dddgir333w3>;=;;;:dHHHHHF$@@@@@;12222:;;;;;;;:::::2222322221",
"5552:>3336ggdggjgiiiigr3>333:======2ddiiir6w,,33:=;;;:dHHHHHF%@@@$$;211:21;;;;;;:::::::222222211",
"55533333>rggjdggiiiiigr3>333:====;=3ddiiir3w,,33:=;;;:dHHHHHG%@$$$$;211221;;;;;;::>::::222222211",
";;;22222:6ggggggt6677663:::::;;;;;;2366663::>>:::;;;::fNMMMMM&%%%%%1555772;;;;;;::>::::::::22222",
"%%%;11;;;:rrttt62221111;;;;::;;;;22;;;;;;=====;;;;1;;:2t37322;;;;;;7ddddd7;;;;;;23>333:;;;;;1777",
"$$$=;;;;;:6trrr62;;;;;;;;;;;;2::222;=&=====&&&&=;111;;11211111111227jjjjj71;1111233>3>::;;;;2777",
"@$$=;;;;;:6rrr672;;;111;;;;;:222222;==**==&&&&&=;1111112211211111227jjjjj711111123333>:;;;;;2id7",
"@@$=;;;;;:6rrr671;;;11;;;;;;:233322;==*&==&&&&&=;111;;2221121111122djjjjj7111111223333:;;;;;27d7",
"$$$=;;;;;26rrrr71;;1;;;;;;;;:23>>32=&&*&===&&&==;111;;1221111111122djjjjj7111111233333:;;;;;2dd7",
"$$$=;;;;;:6667772;:;;;;;;;;;;233>3:=&&=========;;111;11211111111111djddjj71111112wwwww:;;;;;27dd",
"===;2:;;;;&%%%%&;23322:==&&&;7tttt7:=====;;;;;;;6q777777777777555525555552111112cbbbbba;;;;;;777",
"22222:::3;Oo...+;76666;%%%%%=diiigd2;;;;;;::::::ijjjjjjjjjjjj7777551;;;;;;11111eJERRRJc;;;;;;122",
"222333223;o    X;7rr67:%$$$%=dddddd3;;;;;:::::::ijjjjjjjjjjjj7777771;;;;;;;1111aJQRWRRb;;;;;;;;;",
"222366666;o    X;tttt7:%$$$%=dddddd3;;;;;::::>::ijjjjjjjjjjjj7777071;;;;;;;1111eJWWR!Rb=;;;;;;;1",
"222666666;o    X;tttt7:$%%%%=dddddd3;;;;;;:::>::ijjjjjjjjjjjjd777771;;;;;;;1111eJWR~~Rb=;;;;;;11",
"222266666;.    X;7rtrr:$%%%%=dddddd2;;;;;;::::::ijjjjjjjjjjjj7777771;;;;;;;11;1eJWRQREb=;;;;;;11",
";;;2666662=%%%%=;:::::;;;;==;3777772;;;;;;::::::7iii7d77qq7776222220dd7773;;;;;2xbbbbbw=====&%%%",
"==;2666667625552;&&&&&;:2211;;11;;;;;11221;;;;;;23222222222221;;;11jMMMMMd;=====::::::==&&&&&+++",
"&&=2776677775775=%***%&222221;;;;;;;;12221;;;;;;1212222111111;;;;;1kVVVVVj;============&&&&&%+XO",
"&&=3tttr7qq75555=%****=222221;;;;;;;;;1221;;;;;;1112222211111;;;;;1kVVVVVj;============&&&&&%OX+",
"&&=3tttt67q77556=%****=222221;;;;;;;;:2121;;;;;;1122222221111;;11;2MVVVVVj;============&&&&&%+X+",
"&&=277ttt7775575=%****=222221;;;;;;;;1112;;;;;;;1222222221111;;;;;2MVVVVVj;========&&&&&&&&&%+++",
"=;;2767767555555;=====;222221;;;;;;112222;;;;;;;1121112221111;;;;;1jMMMMMd;==;;;;;;;;;;=&&&&%@@@",
"77656663661111112633363222121======116222;%%%%%%&=====;221111;;;;;;27777772;::::223222;===&&&%%%",
"djd7222222;;===;7jjjjjd222111&&====255552;$++++@$%$%$%=211111;;;;;;;==&&=;22:>>66rrtit:====&=;;;",
"jji7222222;====;djjjdjd222221======255552;$++++@$$$$$$=221111;;;;;;===&&=;3333>rrrrr6t:&===&=;;;",
"jgi6222222;====;djjjdjd222221======255552;$++++@$$$$%%=221111;;;;;;======;2333>rrrrrrt:&&&&&=;;;",
"jdi7222222;====;djjjjj7222221======255552;$+++++$$$$%%=221111;;;;;;======;23333rrrrrrt:&&&&&=;;;",
"ddi7222222=====;7ddd777221111======122222;%$$$$$%%%%%%;266622;;;;;;;=====;223336rrr6672==&==;;;;",
"t7q7337672=============;;;;;;&&&&==;111112222222;=;;;:2dddddd222666:;1;1;16666666::2222222222;;=",
"2667777tt3=====%+XXX+X$==&&=&&&&&&==;;;;;2jjjjjjt33333tjnnnnj77777762222255555761;;;;;27ttttw:::",
"6227ttiit3=====%+XXXXX+==&&&&&&&&&&=====;5jnnnnnt33333dnnnnnn6ttiqi6222255555556;;;;;;2tiittw:::",
"2227tiiit2=====%+XXXXX+==&&&&===========;5nnnnnna33333dnnnnnnrttiit6322225555555;;;;;;2iiiitr:::",
"6237qiiit2=&===%+XXXXX+=================;7nnnnnnt3336wdnnnnnnrtttit6322225555555;;;;;;2tiiitr:=-",
"63367iit72=&===%+XXXXX+======&&&&====&==;6nnnnnnt33333dnnnnnn77777t7322225555552;;;;;;2ttrtt6:==",
"3336666672===&&&@++++X$;;;;;;=&=====;;;=;2jnnndd3;;:::7jjjjjj222:222222222557776;;====:333333:::",
"3333:::::;;===;=%%%%%$=2;;:::======;;;;;;2qii777;&&===;777777%%%%%%;;;;1;2776776===***=;;;;;;:::",
"333::::::;;;;;;;=&**&*;2::>>:=---==;211111555252=%%%%%;222222++++++=;;;;;27ttrt6=******======333",
"363::::::;;;;;;;======;:3:33:---===;221111555556&%%%%%;522222++++++&;;;;;27itri6*******&=====>3,",
"666::::::;;;;;;;======;:>333:=-====;222211555556&%%%%%;522222@+++++&;;;;;:7itrt3******%&=====33>",
"666::::::;;;;;;;=====&;2>3332======;222212555552=%%%%%;522222@+++++&;;;;;27itrt6=****%%&&====333",
"332::::::;;;;;;;==&&=&;6r3333-;;;;;;;;;;;1255552=%%%%%;553332#++++@=;;;;;2777776=&&**%*&&====3>>",
";;:2666332;;;;;=%$$$$$:nMMMMv222211=&&&&&;7diii71;;;;;2dddddd%%%%%%;2111;;222222;;;;;;;;;;;;;===",
";;;2777775;;;;;=%$$$$$3FFGGGM332222=%%%%%;iddidd2;;;;17jjjjjd==&&&=1211111222222:::::;;;;;;;=%%%",
";;;2777775;;;;;=%$$@@@3PPHHGM322222&$$$%%;idgddd2111;17jjjjjj==&&&=122222222222::;111;;;;;;;=%%%"
};
