/* XPM */
static char *_6374b6301fb495aa7b96386007b12e9APDmdvRcb5O38tZ1[] = {
/* columns rows colors chars-per-pixel */
"96 96 45 1 ",
"  c gray13",
". c gray14",
"X c #2A2A2A",
"o c #2C2C2C",
"O c gray19",
"+ c #373737",
"@ c gray22",
"# c #393939",
"$ c gray24",
"% c #444444",
"& c gray28",
"* c #484848",
"= c #4C4C4C",
"- c #535253",
"; c gray33",
": c gray34",
"> c #5A5A5A",
", c gray36",
"< c gray38",
"1 c gray39",
"2 c #686868",
"3 c #6D6D6D",
"4 c #717171",
"5 c #767676",
"6 c #797979",
"7 c gray50",
"8 c #808080",
"9 c gray52",
"0 c gray54",
"q c #8E8E8E",
"w c #909090",
"e c gray58",
"r c #9B9B9B",
"t c gray62",
"y c gray64",
"u c #A7A6A7",
"i c #A8A7A8",
"p c #AAAAAA",
"a c #ACACAC",
"s c #B1B1B1",
"d c #B7B7B7",
"f c gray72",
"g c #C0C0C0",
"h c gray77",
"j c #CBCBCB",
/* pixels */
"sssssssssuuueee777,,,,,,,,,sssssssss888,,,dddqqqsssssssssuuueee777,,,,,,,,,sssssssss888,,,dddqqq",
"sssssssssuuueee777,,,,,,,,,sssssssss888,,,dddqqqsssssssssuuueee777,,,,,,,,,sssssssss888,,,dddqqq",
"sssssssssuuueee777,,,,,,,,,sssssssss888,,,dddqqqsssssssssuuueee777,,,,,,,,,sssssssss888,,,dddqqq",
"ssssss222777ooo,,,ssssss,,,777009877www###333tttssssss222777ooo,,,ssssss,,,777009877www###333ttt",
"ssssss222777ooo,,,ssssss,,,778000777www###333tttssssss222777ooo,,,ssssss,,,778000777www###333ttt",
"ssssss222777ooo,,,ssssss,,,788000777www###333tttssssss222777ooo,,,ssssss,,,788000777www###333ttt",
">>>777777Ooo>>>ssssss999OOO...q00777###,,,,,,999>>>777777Ooo>>>ssssss999OOO...q00777###,,,,,,999",
">>>777778Ooo>>>ssssss999OOO...000777###,,,,,,999>>>777778Ooo>>>ssssss999OOO...000777###,,,,,,999",
">>>777778Ooo>>>ssssss899OOO...000777#+#,,,,,,999>>>777778Ooo>>>ssssss899OOO...000777#+#,,,,,,999",
"444***OOO,,,fff222eee777###>>>###$$$,,,pppddd>>>444***OOO,,,fff222eee777###>>>###$$$,,,pppddd>>>",
"444***OOO,,,fff222eee777###>>>###$$$,,,pppddd>>>444***OOO,,,fff222eee777###>>>###$$$,,,pppddd>>>",
"444***OOO,,,dff222eee777###>>>###$$$>>,pppddd>>>444***OOO,,,dff222eee777###>>>###$$$>>,pppddd>>>",
"ssssss,,,,,,sss999999$$$,,,uuutttttt---777ppp,,,ssssss,,,,,,sss999999$$$,,,uuutttttt---777ppp,,,",
"ssssss,,,,,,sss999999$$$,,,uuutttttt---777ppp,,,ssssss,,,,,,sss999999$$$,,,uuutttttt---777ppp,,,",
"ssssss,,,,,,sss999999$$$,,,uuutttttt---777ppp,,,ssssss,,,,,,sss999999$$$,,,uuutttttt---777ppp,,,",
"444999777,,,666000777+++ppphhh666000<<<>>>ooO###444999777,,,666000777+++ppphhh666000<<<>>>ooO###",
"444999777,,,666000777+++ppphhh666000<<<>>>ooo###444999777,,,666000777+++ppphhh666000<<<>>>ooo###",
"444999777,,,666000777+++ppphhh666000<<<>>>ooO###444999777,,>666000777+++ppphhh666000<<<>>>ooO###",
"787877777,,,222######,,,<<<qqqyyy877444777777;;;787777777,,,222######,,,<<<qqqyyy877444777777;;;",
"777777777,,,222######,,,<<<qqqyyy777444777777;;;788777777,,,222######,,,<<<qqqyyy777444777777;;;",
"777777777>,,222######,,,<<<qqqyyy877444778777;;;777777777>,,222######,,,<<<qqqyyy877444778777;;;",
"777777OOO;;;pppsss,,>---,,,===+++900777###<<<ggg777777OOO;;;pppsss,,>---,,,===+++900777###<<<ggg",
"777777OOO;;;pppsss,,>---,,,===+++000777###<<<ggg777777OOO;;;pppsss,,>---,,,===+++000777###<<<ggg",
"777777OOO;;;pppsss,,,---,,,===+++000777###<<<ggg777777OOO;;;pppsss,,,---,,,===+++000777###<<<ggg",
"777...,,,fffsss777333sssppp777<<,***%$$   hhhsss777...,,,fffsss777333sssppp777,,,***%$$   hhhsss",
"777...,,,fffsss777333sssppp777<<,***$$$   hhhsss777...,,,fffsss777333sssppp777,,,***$$$   hhhsss",
"777...,,,fffsss777333sssppp777,,,***$$$   hhhsss777...,,,fffsss788333sssppp777,,,***$$$   hhhsss",
"000,,,sssddd000###sss222fffwwwwww>,,,,,ggg777778000,,,sssddd000#$$sss222fffwwwwww>,,,,,ggg777777",
"000,,,sssddd009###sss222fffwwwwww,,,,,,ggg777777000,,,sssddd000###sss222fffwwwwww,,,,,,ggg777777",
"000,,,sssddd909###sss222fffwwwwww,,,,,,ggg777777000>,,sssddd900###sss222fffwwwwww,,,,,,ggg777777",
",,,uuu666777877OOOssseee777777999###<<,,,,rrr899,,,uuu666777877+OOssseee777777999###<<,,,,rrr899",
",,,uuu666777777OOOssseee777777999###<<<,,,rrr999,,,uuu666777777OOOssseee777777999###<<<,,,rrr999",
",,,uuu666777777OOOssseee777777999###,,,,,,rrr999,,,uuu666777777OOOssseee777777999###,,,,,,rrr999",
",,,,>,yyy777333###777888www777###---aaa,,,,,,###,,,,,,tty777333+##777888www777###---aaa,,,,,,###",
",,>,>>yyy777333###777888www777###---aaa,,,,,,###,,,,,,yyy777333###777888www777###---aaa,,,,,,###",
",,>>>>yyy777333+##777888www777###---aaa,,,,,,###,,,,,,yyy777333###777888www777###---aaa,,,,,,###",
"ssssss##+#####++##<<<777%%%+++sssyyy777777,,,,,,ssssss############<<<777%%*###sssyyy777777,,,,,,",
"ssssss########++##<<<777%%%+++sssyyy777777,,,,,,ssssss############<<<777%%%++#sssyyy777777,,,,,,",
"ssssss##++########<<<788*%%+++sssyyy777777,,,,,,ssssss############<<<777%**+++sssyyy777777,,,,,,",
"fff666444dddpppddd,,,###<<<jjjuuu777www778000+++dff666444dddpppddd,,,###<<<jjjuuu777www778000+++",
"fff666444dddpppddd,,,###<<<jjjuuy777www777000+++fff666444dddpuuddd,,,###<<<jjjuuy777www777000+++",
"fff666444dddpppddd,,,###<<<jjjuuy777www777000+++fff666444ddduupddd,,,###<<<jjjuuy777www777000+++",
"555000%%%yyy998666777,,,,,,,,,877wwwq00eee$$$###555000%%%yyy998666777,,,,,,,,,877wwwq00eee$$$###",
"555000%%%yyy998666777,,,,,,,,,777www000eee$$$###555000%%%yyy998666777,,,,,,,,,887www000eee$$$###",
"555000%%%yyy999666777,,,,,,,,,777www000eee$$$###555000%%%yyy999666777,,,,,,,,,787www000eee$$$###",
"666555444===XXXXXX###,,,aas888;;>,,,%%%***$$$<<<666555444===XXXXXX###,,,aas888;;>,,,%%%***$$$<<<",
"666555444===XXXXXX###,,,aas888;;;,,,******$$$<<<666555444===XXXXXX###,,,aaa888;;;,,,******$$$<<<",
"666555444===XXXXXX###,,,aas888;;;,,,**%***$$$<<<666555444===XXXXXX###,,,aaa888;;;,,,**%***$$$<<<",
"sssssssssiuueee777,,,,,,,,,sssssssss888,>,dddqqqsssssssssiuueee777,,,,,,,,,sssssssss888,>,dddqqq",
"sssssssssuuueee777,,,,,,,,,sssssssss888,,,dddqqqsssssssssuuueee777,,,,,,,,,sssssssss888,,,dddqqq",
"sssssssssuuueee777,,,,,,,,,sssssssss888,,,dddqqqsssssssssuuueee777,,,,,,,,,sssssssss888,,,dddqqq",
"ssssss222777ooo,,,ssssss,,,777009877www###333tttssssss222777ooo,,,ssssss,,,777009877www###333ttt",
"ssssss222777ooo,,,ssssss,,,778000777www###333tttssssss222777ooo,,,ssssss,,,778000777www###333ttt",
"ssssss222777ooo,,,ssssss,,,788000777www###333tttssssss222777ooo,,,ssssss,,,788000777www###333ttt",
">>>777777Ooo>>>ssssss999OOO...q00777###,,,,,,999>>>777777Ooo>>>ssssss999OOO...q00777###,,,,,,999",
">>>777778Ooo>>>ssssss999OOO...000777###,,,,,,999>>>777778Ooo>>>ssssss999OOO...000777###,,,,,,999",
">>>777778Ooo>>>ssssss899OOO...000777###,,,,,,999>>>777778Ooo>>>ssssss899OOO...000777###,,,,,,999",
"444***OOO,,,fff222eee777###>>>+##$$$,,,pppddd>>>444***OOO,,,fff222eee777###>>>+##$$$,,,pppddd>>>",
"444***OOO,,,fff222eee777###>>>###$$$,,,pppddd>>>444***OOO,,,fff222eee777###>>>###$$$,,,pppddd>>>",
"444***OOO,,,dff222eee777###>>>###$$$>>,pppddd>>>444***OOO,,,dff222eee777###>>>###$$$>>,pppddd>>>",
"ssssss,,,,,,sss999999$$$,,,uuutttttt---777ppp,,,ssssss,,,,,,sss999999$$$,,,uuutttttt---777ppp,,,",
"ssssss,,,,,,sss999999$$$,,,uuutttttt---777ppp,,,ssssss,,,,,,sss999999$$$,,,uuutttttt---777ppp,,,",
"ssssss,,,,,,sss999999$$$,,,uuutttttt---777ppp,,,ssssss,,,,,,sss999999$$$,,,uuutttttt---777ppp,,,",
"444999777,,,666000777+++ppphgg666900<<<,>>ooO###444999777,,,666000777+++ppphgg666900<<<,>>ooO###",
"444999777,,,666000777++#ppphhh666000<<<>>>ooo###444999777,,,666000777+++ppphhh666000<<<>>>ooo###",
"444999777,,,666000777+##ppphhh666900<<<>>>ooo###444999777,,,666000777+++ppphhh666900<<<>>>ooo###",
"787877777,,,222######,,,<<<qqqyyy877444788777;;;788777777,,,222######,,,<<<qqqyyy877444778777;;;",
"777777777,,,222######,,,<<<qqqyyy777444788777;;;788877777,,,222######,,,<<<qqqyyy777444778777;;;",
"777777777>,,222######,,,<<<qqqyyy877444888777;;;777777777>,,222######,,,<<<qqqyyy877444777777;;;",
"777777OOO;;;pppsss,,>---,,,===+++900777###<<<ggg777777OOO;;;pppsss,,>---,,,===+++900777###<<<ggg",
"777777OOO;;;pppsss,,>---,,,===+++000778###<<<ggg777777OOO;;;pppsss,,>---,,,===+++000777###<<<ggg",
"777777OOO;;;pppsss,,,---,,,===+++000778###<<<ggg777777OOO;;;pppsss,,,---,,,===+++000777###<<<ggg",
"777...,,,fffsss777333sssppp777,,,***$$$   hhhsss777...,,,fffsss777333sssppp777<<,***%$$   hhhsss",
"777...,,,fffsss777333sssppp777,,,***$$$   hhhsss777...,,,fffsss777333sssppp777<<<***$$$   hhhsss",
"777...,,,fffsss777333sssppp777,,,***$$$   hhhsss777...,,,fffsss777333sssppp777,,<***$$$   hhhsss",
"000,,,sssddd000###sss222fffwwwwww,,,,,,ggg777778000,,,sssddd000###sss222fffwwwwww,,,,,,ggg777777",
"000,,,sssddd009###sss222fffwwwwww,,,,,,ggg777777000,,,sssddd009###sss222fffwwwwww,,,,,,ggg777777",
"000,,,sssddd909###sss222fffwwwwww,,,,,,ggg777777000,,,sssddd909###sss222fffwwwwww,,,,,,ggg777777",
",,,uuu666777877O+Ossseee778877999###,,,,,,rrr899,,,uuu666777877OOOssseee777777999###,,,,,,rrr899",
",,,uuu666777777O+Ossseee777777999###,,,,,,rrr999,,,uuu666777777OOOssseee777777999###,,,,,,rrr999",
",,,uuu666777777OOOssseee778888999+++,,,,,,rrr999,,,uuu666777777OOOssseee777777999###,,,,,,rrr999",
",,,,>,yyy777333###777888www788##+---aaa,,,,,,###,,,,>,yyy777333###777888www777###---aaa,,,,,,###",
",,>,>>yyy777333###777888www777##+---aaa,,,,,,###,,>,>>yyy777333###777888www777###---aaa,,,,,,###",
",,>>>>yyy777333+##777888www777##+---aaa,,,,,,###,,>>>>yyy777333+##777888www777###---aaa,,,,,,###",
"ssssss##+#####++##<<<777%%%+++sssyyy777777,,,,,,ssssss##+#####++##<<<777%%%+++sssytt777777,,,,,,",
"ssssss########++##<<<777%%%+++sssyyy777777,,,,,,ssssss########++##<<<777%%%+++sssyty777777,,,,,,",
"ssssss##++########<<<777%%%+++sssyyy777777,,,,,,ssssss##++########<<<788*%%+++sssyyy777777,,,,,,",
"fff666444dddpppddd,,,###<<<jjjuuu777www778000+++dff666444dddpppddd,,,###<<<jjjuuu777www778000+++",
"fff666444dddpppddd,,,###<<<jjjuuu777www777000+++fff666444dddpppddd,,,###<<<jjjuuu777www777000+++",
"fff666444dddpppddd,,,###<<<jjjuuu777www777000+++fff666444dddpppddd,,,###<<<jjjuuu777www777000+++",
"555000%%%yyy998666777,,,,,,,,,777wwwq00eee$$$###555000%%%yyy998666777,,,,,,,,,877wwwq00eee$$$###",
"555000%%%yyy998666777,,,,,,,,,778www000eee$$$###555000%%%yyy998666777,,,,,,,,,777www000eee$$$###",
"555000%%%yyy999666777,,,,,,,,,777wwwq00eee$$$###555000%%%yyy999666777,,,,,,,,,887wwwqqqeee$$$###",
"666555444===XXXXXX###,,,sss888;;>,,,*%%***$$$<<<666555444===XXXXXX###,,,sss888>;>,,,***=**$$$<<<",
"666555444===XXXXXX###,,,aaa888;;;,,,**%***$$$<<<666555444===XXXXXX###,,,aaa888;;;,,,**%***$$$<<<",
"666555444===XXXXXX###,,,ssa888;;;,,,**%***$$$<<<666555444===XXXXXX###,,,aaa888;;;,,,%%%***$$$<<<"
};
